<?xml version="1.0" encoding="UTF-8"?>
<svg version="1.1" xmlns="http://www.w3.org/2000/svg" width="1280" height="1280">
<path d="M0 0 C0.78075866 0.00092179 1.56151731 0.00184359 2.36593533 0.00279331 C3.70584782 0.00073132 3.70584782 0.00073132 5.07282925 -0.00137234 C6.06041225 0.00222294 7.04799526 0.00581821 8.06550503 0.00952244 C9.09952953 0.00937641 10.13355404 0.00923038 11.19891262 0.00907993 C14.63485175 0.00977956 18.07073742 0.01757425 21.50666714 0.02539158 C23.88178382 0.02725558 26.25690089 0.02867957 28.63201809 0.0296793 C34.89727233 0.03350586 41.16250356 0.04333732 47.42774868 0.05438328 C53.81537979 0.06459443 60.2030146 0.06917628 66.59065151 0.0742197 C79.13428115 0.08495947 91.6778948 0.10184656 104.22151089 0.12304783 C105.49043037 3.43348556 106.75658514 6.7449744 108.02229214 10.05664158 C108.37714687 10.9823093 108.73200161 11.90797703 109.09760952 12.86169529 C111.29153058 18.60671889 113.40231527 24.37250152 115.40901089 30.18554783 C115.71516323 31.06847507 116.02131557 31.95140232 116.33674526 32.86108494 C116.59778042 33.61655613 116.85881557 34.37202732 117.12776089 35.15039158 C119.81822701 42.87467661 122.62219896 50.55814979 125.40901089 58.24804783 C130.07539918 71.12999875 134.68051574 84.03189773 139.2263937 96.9568491 C142.41629049 106.02616859 145.63630016 115.08317345 148.90901089 124.12304783 C151.87913348 132.32763079 154.76354807 140.55765199 157.59651089 148.81054783 C160.65412183 157.70709448 163.82894231 166.55159947 167.09651089 175.37304783 C172.80999687 190.82104381 178.25764541 206.36083609 183.70970058 221.9026804 C189.18635714 237.51450209 194.70030172 253.11169313 200.28401089 268.68554783 C204.37580442 280.09977868 208.42283481 291.52471643 212.34651089 302.99804783 C216.16619247 314.16393772 220.13559345 325.26974862 224.15901089 336.36331272 C228.9365807 349.53699936 233.65660205 362.73040039 238.34651089 375.93554783 C238.85776516 377.37485157 238.85776516 377.37485157 239.3793478 378.84323215 C241.66162785 385.26928455 243.94195554 391.69602845 246.22151089 398.12304783 C246.76121925 399.64453404 247.3009325 401.16601852 247.84065151 402.68750095 C248.80859742 405.41625727 249.77653388 408.14501695 250.74446011 410.87378025 C250.96938137 411.50786808 251.19430264 412.14195591 251.4260397 412.79525852 C252.09118208 414.67052409 252.7562005 416.54583364 253.42121792 418.42114353 C256.34365391 426.65905671 259.27909511 434.89225173 262.22151089 443.12304783 C265.69041915 452.82763379 269.1496479 462.53561114 272.59651089 472.24804783 C272.82221767 472.88391819 273.04792446 473.51978855 273.28047085 474.17492771 C275.97632951 481.77138835 278.66293072 489.37104898 281.33869839 496.97461033 C282.38281018 499.94081218 283.42709 502.9069548 284.47151089 505.87304783 C284.72600002 506.59592991 284.98048916 507.31881199 285.24269009 508.06359959 C288.41999346 517.08391216 291.62123764 526.09364674 294.9920187 535.04394627 C296.39179478 538.77855635 297.69256842 542.53136537 298.93244839 546.32226658 C301.69565023 554.67473167 304.76325709 562.91664473 307.7901144 571.17617893 C314.09275746 588.38481968 320.24393745 605.63088332 326.14973354 622.97998142 C327.8870582 628.07481459 329.6455636 633.16220731 331.40901089 638.24804783 C331.83633511 639.48905247 331.83633511 639.48905247 332.27229214 640.75512791 C335.45283664 649.92695148 338.85268478 659.01920307 342.22151089 668.12304783 C343.31826765 671.09034705 344.41445546 674.05785632 345.51057339 677.02539158 C345.91453587 678.11888416 345.91453587 678.11888416 346.3266592 679.23446751 C357.61348134 709.79399404 368.63369609 740.44594573 379.59651089 771.12304783 C380.02321072 772.31669956 380.44991055 773.5103513 380.88954067 774.74017429 C385.54244193 787.75945993 390.16783091 800.78734802 394.72395229 813.84082127 C396.69553863 819.48645292 398.70430928 825.11857449 400.72151089 830.74804783 C401.57050217 833.12173396 402.41945802 835.49543276 403.26838589 837.86914158 C403.73516974 839.17367098 404.20196714 840.47819553 404.66877651 841.7827158 C407.44251499 849.5350576 410.21258012 857.28871256 412.98249722 865.04242039 C413.9440289 867.73362914 414.9059934 870.4246829 415.86799526 873.11572361 C419.67758113 883.77606685 423.46164545 894.44507479 427.22151089 905.12304783 C428.89769514 909.88016733 430.57458683 914.63703743 432.25178432 919.39379978 C432.72463557 920.73520242 433.19729766 922.07667174 433.66975307 923.41821384 C437.06267054 933.05159144 440.48664335 942.67363304 443.92463589 952.29101658 C447.51498758 962.33488544 451.09358875 972.38280788 454.65901089 982.43554783 C454.88689548 983.07803659 455.11478008 983.72052536 455.34957027 984.38248348 C457.20669205 989.6186979 459.06305637 994.85518078 460.91938686 1000.09167576 C462.54057464 1004.66475854 464.16209019 1009.23772494 465.78401089 1013.81054783 C466.01072412 1014.44979065 466.23743736 1015.08903347 466.4710207 1015.74764729 C469.81380166 1025.17166616 473.17146634 1034.59027038 476.53791714 1044.00586033 C479.87602199 1053.34218606 483.1904191 1062.68622196 486.47251797 1072.04235935 C490.32528182 1083.0181548 494.24473676 1093.96421233 498.28401089 1104.87304783 C505.78624538 1125.15691962 512.86629745 1145.59333482 520.0217886 1166.00135899 C524.6788907 1179.28340123 529.36365931 1192.55528074 534.09651089 1205.81054783 C534.51851772 1206.99592136 534.94052456 1208.1812949 535.37531948 1209.40258884 C537.42966537 1215.1614739 539.50456733 1220.91057254 541.64338589 1226.63867283 C542.20243618 1228.14361301 542.20243618 1228.14361301 542.77278042 1229.67895603 C543.46992274 1231.54989075 544.17365182 1233.41838918 544.88508511 1235.2839365 C545.19462124 1236.11642918 545.50415737 1236.94892185 545.82307339 1237.80664158 C546.09458218 1238.52392429 546.36609097 1239.24120701 546.64582729 1239.98022556 C547.22151089 1242.12304783 547.22151089 1242.12304783 547.22151089 1247.12304783 C469.34151089 1247.12304783 391.46151089 1247.12304783 311.22151089 1247.12304783 C307.84697363 1238.1242818 307.84697363 1238.1242818 306.65022182 1234.12719822 C306.37794765 1233.22295109 306.10567348 1232.31870396 305.82514858 1231.3870554 C305.53829189 1230.42465946 305.2514352 1229.46226353 304.95588589 1228.47070408 C304.49079617 1226.92317951 304.49079617 1226.92317951 304.01631069 1225.34439182 C303.3481017 1223.12034706 302.68106602 1220.89594951 302.01508999 1218.67123508 C300.22511519 1212.69249104 298.42620094 1206.7164374 296.62776089 1200.74023533 C296.25999538 1199.51751423 295.89222988 1198.29479313 295.51331997 1197.03501987 C291.87438784 1184.94736847 288.17699245 1172.87792898 284.47151089 1160.81054783 C279.84702402 1145.73947609 275.25227305 1130.66008064 270.72151089 1115.56054783 C270.37352444 1114.40224964 270.37352444 1114.40224964 270.01850796 1113.22055149 C266.01166144 1099.8758648 262.12300501 1086.49959912 258.22151089 1073.12304783 C143.38151089 1072.79304783 28.54151089 1072.46304783 -89.77848911 1072.12304783 C-90.75397903 1068.22108815 -90.8377547 1067.40709524 -89.74968052 1063.83056736 C-89.49802128 1062.98558689 -89.24636204 1062.14060642 -88.98707676 1061.27002048 C-88.70425846 1060.35784763 -88.42144016 1059.44567478 -88.13005161 1058.50586033 C-87.84231876 1057.54969822 -87.55458591 1056.59353611 -87.25813389 1055.60839939 C-86.31596953 1052.48535447 -85.35980019 1049.36678688 -84.40348911 1046.24804783 C-83.74986238 1044.09062283 -83.09719745 1041.93290621 -82.4454813 1039.7749033 C-81.15230597 1035.4974865 -79.85405229 1031.22166945 -78.55095005 1026.94726658 C-77.08455724 1022.13486913 -75.63132464 1017.31876913 -74.19255161 1012.49804783 C-71.28238643 1002.74784369 -68.35203595 993.00387355 -65.39567661 983.26757908 C-65.19236729 982.59792118 -64.98905796 981.92826328 -64.77958775 981.23831272 C-63.9457052 978.49198144 -63.11178675 975.7456616 -62.2769022 972.99963474 C-59.83786014 964.9754849 -57.42260117 956.94502864 -55.05192661 948.90039158 C-54.12774596 945.76618886 -53.20337498 942.63204253 -52.27848911 939.49804783 C-52.04940861 938.7217905 -51.8203281 937.94553318 -51.58430576 937.14575291 C-48.40684131 926.39801472 -45.07892452 915.71137382 -41.59098911 905.06054783 C-37.59830934 892.86762063 -33.98626381 880.59884004 -30.51677036 868.24804783 C-29.14265406 863.36626025 -27.69683121 858.5162525 -26.15348911 853.68554783 C-23.95846132 846.79846398 -21.97581232 839.86107707 -20.01066685 832.90527439 C-18.4924116 827.55453491 -16.90459943 822.2348673 -15.21598911 816.93554783 C-13.09626079 810.26766456 -11.19692974 803.55525681 -9.3895731 796.79614353 C-7.88253833 791.22709704 -7.88253833 791.22709704 -6.77848911 790.12304783 C-4.43821787 790.02542559 -2.1275053 789.99307179 0.21322536 790.00279331 C0.95320277 790.00193889 1.69318017 790.00108446 2.45558113 790.00020415 C4.95383502 789.99854714 7.45202287 790.0040743 9.95027065 790.00952244 C11.73364669 790.00980429 13.51702285 790.00964662 15.30039883 790.00907993 C20.15763279 790.00879187 25.01484229 790.01468995 29.87207055 790.02165389 C34.94232037 790.02788604 40.01257069 790.02849112 45.08282375 790.0296793 C54.69114782 790.03279303 64.29946056 790.04100697 73.90777963 790.05102879 C84.84350617 790.06218864 95.77923323 790.06770005 106.71496403 790.07272422 C129.2171526 790.08318955 151.71933111 790.10078979 174.22151089 790.12304783 C173.87738659 789.02265675 173.53326229 787.92226566 173.17870998 786.7885294 C172.7231637 785.33143369 172.26762302 783.87433622 171.81208706 782.41723728 C171.58575336 781.69355206 171.35941967 780.96986683 171.12622738 780.22425175 C164.31386721 758.43160901 158.14102532 736.45161313 151.90559292 714.48877048 C147.60849312 699.3539502 143.31134047 684.22578431 138.68904018 669.18628025 C133.52277874 652.37277879 128.74302089 635.45078749 124.00630093 618.51248264 C121.61339131 609.96403915 119.14064938 601.45891398 116.44026089 593.00195408 C112.51097389 580.61884513 109.04521728 568.08402956 105.53791714 555.57617283 C105.30149502 554.73397694 105.0650729 553.89178104 104.82148647 553.02406406 C103.64492336 548.83162621 102.4717976 544.63828439 101.30500698 540.44311619 C98.57471261 530.6687059 95.63634741 520.98068306 92.54939175 511.31323338 C91.03055914 506.54711829 89.62662716 501.75408291 88.28401089 496.93554783 C87.77807874 495.14501975 87.2715455 493.35466143 86.76447964 491.56445408 C86.38235317 490.21311375 86.38235317 490.21311375 85.99250698 488.83447361 C83.82399548 481.20828971 81.58055636 473.6034804 79.35383511 465.99414158 C78.26428559 462.27033677 77.17665699 458.545972 76.0890646 454.82159519 C75.04203218 451.23666709 73.99429205 447.65194604 72.94642544 444.0672617 C72.43168073 442.30601365 71.91714552 440.54470435 71.40284634 438.78332615 C68.92248885 430.28978924 66.43163436 421.80026975 63.87399197 413.32963657 C61.18952448 404.43875777 58.64003993 395.52799212 56.22151089 386.56054783 C53.66416357 377.1640277 50.98607734 367.83289684 47.94807339 358.57983494 C46.22151089 353.30375578 46.22151089 353.30375578 46.22151089 351.12304783 C44.57151089 351.12304783 42.92151089 351.12304783 41.22151089 351.12304783 C41.11661343 352.07743748 41.01171597 353.03182713 40.90363979 354.01513767 C40.21574978 358.78598778 38.75866723 363.2640493 37.30744839 367.84961033 C34.22124998 377.79795531 31.24490244 387.7739925 28.32307339 397.77148533 C27.88252391 399.27712182 27.44193608 400.78274709 27.0013113 402.28836155 C26.0877934 405.41066875 25.17482175 408.53313507 24.26219082 411.65570164 C21.8322149 419.96895122 19.39681973 428.28061302 16.95979214 436.59179783 C16.71556955 437.42470215 16.47134697 438.25760647 16.2197237 439.11575031 C9.87334428 460.75363561 3.42519026 482.36074573 -3.04081821 503.96316624 C-5.02181505 510.5838763 -6.99306035 517.20738793 -8.95427036 523.83398533 C-13.41731561 538.91014718 -17.93485785 553.96210655 -22.63444614 568.96655369 C-25.37214868 577.73180823 -27.97796743 586.53036755 -30.4845438 595.36450291 C-31.8347874 600.08238823 -33.31049341 604.67626195 -35.08171177 609.25219822 C-36.23361192 612.34505415 -37.12615425 615.51334987 -38.02848911 618.68554783 C-39.96773749 625.39248748 -41.97901459 632.0740135 -44.02848911 638.74804783 C-46.75735217 647.66218458 -49.38168692 656.60351291 -51.96598911 665.56054783 C-56.96524543 682.88252764 -62.16010408 700.14481588 -67.35905552 717.4077158 C-69.4001821 724.18618277 -71.43302024 730.96713038 -73.46598911 737.74804783 C-75.6347814 744.98074949 -77.80502095 752.21300192 -79.98161411 759.44336033 C-85.05812761 776.31726427 -90.0516961 793.21417524 -95.01516819 810.12156773 C-104.65807959 842.96057551 -114.45371 875.75616736 -124.30339146 908.53369236 C-127.83295283 920.28756869 -131.33747546 932.04888567 -134.84098911 943.81054783 C-135.12699986 944.77049656 -135.4130106 945.73044529 -135.70768833 946.71948338 C-141.38663661 965.78172169 -147.03586098 984.85274127 -152.6790781 1003.92558384 C-160.9883884 1032.00876488 -169.34096047 1060.07813457 -177.77848911 1088.12304783 C-179.82150992 1094.91430791 -181.86344226 1101.70589376 -183.90348911 1108.49804783 C-184.28061543 1109.75344868 -184.28061543 1109.75344868 -184.66536045 1111.03421116 C-188.26007055 1123.00532189 -191.8050492 1134.99015717 -195.3161478 1146.9860239 C-199.1679803 1160.13726387 -203.13073422 1173.25401361 -207.11140537 1186.36676121 C-210.01882813 1195.94550202 -212.91252409 1205.52729973 -215.72380161 1215.13476658 C-215.95383884 1215.92066166 -216.18387608 1216.70655674 -216.42088413 1217.51626682 C-217.49253111 1221.18188826 -218.559502 1224.84879983 -219.62028599 1228.51757908 C-219.99850683 1229.81706825 -220.37676012 1231.11654797 -220.75505161 1232.41601658 C-221.07554478 1233.52485203 -221.39603794 1234.63368748 -221.72624302 1235.776124 C-222.93079637 1239.60749799 -224.36828472 1243.36250279 -225.77848911 1247.12304783 C-283.85848911 1247.12304783 -341.93848911 1247.12304783 -401.77848911 1247.12304783 C-401.05869529 1241.36469727 -400.1837956 1236.62137892 -398.36442661 1231.24414158 C-398.11817036 1230.49576527 -397.8719141 1229.74738895 -397.61819553 1228.97633457 C-397.08359995 1227.35403171 -396.54574333 1225.73280052 -396.00496006 1224.11254978 C-394.82998355 1220.59094714 -393.67180247 1217.06389087 -392.5127573 1213.53701878 C-391.89480412 1211.6567062 -391.27608629 1209.77664477 -390.65664768 1207.89682102 C-387.06728563 1196.99380942 -383.57611568 1186.05973545 -380.09098911 1175.12304783 C-379.77327549 1174.12727726 -379.45556187 1173.13150669 -379.12822056 1172.10556126 C-374.96699937 1159.06218189 -370.85898849 1146.00339871 -366.79963779 1132.92800999 C-363.71502347 1123.00301508 -360.48825653 1113.13259969 -357.17595005 1103.28149509 C-352.58063888 1089.60386517 -348.18091175 1075.86371182 -343.77848911 1062.12304783 C-343.45638462 1061.11935154 -343.13428013 1060.11565525 -342.80241489 1059.08154392 C-339.64428486 1049.23500102 -336.54261471 1039.37278567 -333.49577427 1029.49121189 C-330.07592899 1018.4059967 -326.57221243 1007.36061956 -322.87077427 996.36621189 C-314.94040802 972.78226416 -307.48036773 949.03540352 -299.99723911 925.30664158 C-298.96606527 922.0370863 -297.93481625 918.76755475 -296.90348911 915.49804783 C-296.64214176 914.66946262 -296.38079441 913.84087742 -296.11152744 912.98718357 C-292.53920948 901.66426433 -288.93646025 890.3518682 -285.28947544 879.05273533 C-283.02055521 872.01353873 -280.77483178 864.96740204 -278.54411411 857.91601658 C-278.25974995 857.01741413 -277.97538578 856.11881168 -277.68240452 855.19297886 C-276.27633707 850.74865955 -274.87200723 846.303801 -273.4701395 841.85815525 C-270.69678046 833.07734627 -267.86681688 824.3194944 -264.93980503 815.58865452 C-262.51932276 808.36727928 -260.17244788 801.12365422 -257.84098911 793.87304783 C-257.40554039 792.52034061 -256.97007458 791.16763889 -256.53459263 789.81494236 C-255.28069182 785.91824207 -254.02928201 782.02074684 -252.77848911 778.12304783 C-252.45203403 777.10629978 -252.12557896 776.08955173 -251.7892313 775.04199314 C-248.63560494 765.20888276 -245.53863939 755.35999277 -242.49601841 745.49194431 C-239.09859895 734.4795944 -235.62073925 723.50577383 -231.94328403 712.58374119 C-224.20986412 689.58504095 -216.81566833 666.46155608 -209.66520786 643.27539158 C-205.98621083 631.35462781 -202.27553698 619.4550967 -198.29338169 607.63183689 C-194.05720596 595.04364869 -190.104572 582.36459858 -186.13786411 569.68945408 C-177.53299429 542.20423716 -177.53299429 542.20423716 -173.34098911 529.77685642 C-169.35220103 517.93632893 -165.58112646 506.02435117 -161.77848911 494.12304783 C-161.33037876 492.72264256 -161.33037876 492.72264256 -160.87321568 491.29394627 C-157.95017869 482.15647126 -155.05485998 473.01042208 -152.18083286 463.85742283 C-151.94815708 463.11649891 -151.7154813 462.37557499 -151.47575474 461.61219883 C-150.3282071 457.95726256 -149.18162174 454.30202903 -148.03678989 450.64624119 C-140.76263421 427.43724877 -133.24585984 404.30957961 -125.6329813 381.20971775 C-121.11618463 367.49828908 -116.6869697 353.76855568 -112.49455357 339.9539957 C-110.44780594 333.22172713 -108.28436258 326.53807954 -106.02848911 319.87304783 C-102.61962647 309.7419505 -99.36170557 299.56903409 -96.15348911 289.37304783 C-95.90381382 288.5798917 -95.65413853 287.78673557 -95.39689732 286.96954441 C-94.35383923 283.65584575 -93.31096887 280.34208809 -92.26841831 277.02822971 C-89.03788847 266.76305928 -85.78753623 256.50419717 -82.52848911 246.24804783 C-82.22839939 245.30348728 -81.92830967 244.35892673 -81.61912632 243.38574314 C-78.03341311 232.10740307 -74.39463155 220.85180005 -70.60466099 209.64013767 C-67.9537878 201.75646331 -65.48775859 193.8179759 -63.02848911 185.87304783 C-58.02873571 169.73335683 -52.69839108 153.71146786 -47.31511021 137.69629002 C-44.77304215 130.13322904 -42.24222903 122.56640909 -39.71598911 114.99804783 C-39.46905308 114.25833744 -39.22211704 113.51862705 -38.9676981 112.7565012 C-30.57632776 87.60264758 -22.39059081 62.3744501 -14.59489536 37.02929783 C-13.99863243 35.09505691 -13.40216275 33.16087985 -12.80564976 31.22671604 C-12.2385721 29.38393377 -11.67520134 27.54001202 -11.11198521 25.69604588 C-3.26609573 0.22597045 -3.26609573 0.22597045 0 0 Z " fill="#A900FE" transform="translate(472.778489112854,19.876952171325684)"/>
<path d="M0 0 C23.1 0 46.2 0 70 0 C82.67178092 34.5594025 82.67178092 34.5594025 88.67285156 51.28637695 C91.23865692 58.43431163 93.81286226 65.57159083 96.5703125 72.6484375 C99.72097946 80.76736683 102.46917015 89.02024082 105.25 97.27148438 C107.55633663 104.04274458 110.04938222 110.6608201 112.85253906 117.24145508 C114.53677779 121.29043666 115.96472941 125.41182212 117.375 129.5625 C117.97929305 131.31160455 118.5847907 133.06029332 119.19140625 134.80859375 C119.49320801 135.6785498 119.79500977 136.54850586 120.10595703 137.44482422 C124.16691738 149.05105334 128.57362086 160.52942814 133 172 C138.84708516 187.15417779 144.43093345 202.38419795 149.875 217.6875 C152.88679547 226.15317856 155.9448838 234.59610512 159.125 243 C169.46954588 270.37848666 179.27786976 297.96202197 189.1875 325.5 C189.56554779 326.55045502 189.94359558 327.60091003 190.33309937 328.68319702 C193.85952364 338.48251757 197.38459278 348.28231666 200.90083313 358.08529663 C202.07717719 361.36340755 203.25558987 364.64077227 204.43447876 367.91796875 C204.9647545 369.3936843 205.49408313 370.86974064 206.02230835 372.34619141 C208.8334497 380.20322828 211.76461853 387.98886777 214.89649963 395.72390747 C217.00345173 400.94900302 218.88561136 406.22613749 220.6875 411.5625 C223.7672423 420.54080847 226.97063344 429.46771982 230.25 438.375 C230.4831189 439.00827209 230.71623779 439.64154419 230.9564209 440.29400635 C231.91799792 442.90610165 232.87968161 445.51815757 233.84176636 448.13006592 C236.39269601 455.05895832 238.9166926 461.99759988 241.4375 468.9375 C241.9224295 470.27197817 242.40737453 471.60645069 242.89233398 472.94091797 C243.96777829 475.90049251 245.04302664 478.86013818 246.11816406 481.81982422 C250.01499627 492.54701466 253.9133458 503.27365336 257.8125 514 C258.24309723 515.18468872 258.67369446 516.36937744 259.11734009 517.58996582 C264.76615684 533.12999649 270.43421556 548.66279368 276.125 564.1875 C280.59381937 576.37928984 285.01737951 588.58497865 289.36791992 600.81958008 C296.72513743 621.49566183 304.29426724 642.09607505 311.85742188 662.69750977 C316.50212186 675.3549817 321.10803868 688.0264578 325.71073914 700.69924927 C327.5082263 705.64790592 329.30822482 710.59564425 331.109375 715.54296875 C332.13551058 718.36194499 333.16154831 721.18095683 334.1875 724 C334.56486801 725.03687454 334.56486801 725.03687454 334.94985962 726.09469604 C338.1953722 735.01419266 341.42009088 743.94081597 344.625 752.875 C350.10755798 768.14730703 355.72963859 783.36998686 361.47241211 798.54638672 C364.08632182 805.45910253 366.55543357 812.41348203 368.9777832 819.39550781 C372.37046642 829.13347955 375.91581161 838.8158146 379.44897461 848.50341797 C379.96992061 849.93195474 380.49083551 851.36050285 381.01171875 852.7890625 C381.26755234 853.49066498 381.52338593 854.19226746 381.78697205 854.91513062 C384.10941759 861.28962621 386.39986341 867.67543899 388.6875 874.0625 C391.53552873 882.00589483 394.45616774 889.91821315 397.4375 897.8125 C403.34736964 913.4674227 408.92547058 929.24183467 414.47265625 945.02832031 C417.5379361 953.75096775 420.72066063 962.42692231 423.92822266 971.09814453 C426.08496304 976.93755598 428.23068037 982.78101864 430.375 988.625 C430.61040497 989.26646973 430.84580994 989.90793945 431.08834839 990.56884766 C434.72093751 1000.47142128 438.30977769 1010.38924536 441.87329102 1020.31689453 C444.26125384 1026.96430794 446.68357843 1033.59784912 449.13476562 1040.22216797 C452.03647582 1048.07471741 454.89242667 1055.94381657 457.75 1063.8125 C461.64910317 1074.54817599 465.56287592 1085.27819567 469.5 1096 C473.16122951 1105.97358204 476.80813575 1115.95227367 480.4375 1125.9375 C480.6735495 1126.58666382 480.909599 1127.23582764 481.15280151 1127.90466309 C483.87424322 1135.38899666 486.59252099 1142.8744701 489.30566406 1150.36181641 C499.02986391 1177.19727897 508.76422562 1204.01699294 519.02197266 1230.65380859 C519.91450826 1232.97602478 520.80151191 1235.30028019 521.6875 1237.625 C522.37392578 1239.40777344 522.37392578 1239.40777344 523.07421875 1241.2265625 C524 1244 524 1244 524 1247 C496.94 1247 469.88 1247 442 1247 C435.11406708 1228.63751221 435.11406708 1228.63751221 432.44140625 1221.0703125 C431.98261581 1219.77734253 431.98261581 1219.77734253 431.51455688 1218.45825195 C430.86475127 1216.62654061 430.21556822 1214.7946083 429.56698608 1212.96246338 C427.81576241 1208.01562228 426.05981815 1203.07045594 424.3046875 1198.125 C423.94640366 1197.1150296 423.58811981 1196.1050592 423.21897888 1195.06448364 C419.5574894 1184.74571712 415.87361787 1174.43498849 412.1875 1164.125 C407.94453786 1152.2548554 403.71046444 1140.38171376 399.5 1128.5 C395.20009961 1116.37050255 390.88721347 1104.24567337 386.5625 1092.125 C386.2441922 1091.23272705 385.9258844 1090.3404541 385.59793091 1089.42114258 C381.01121538 1076.5691916 376.36409057 1063.74044976 371.67861938 1050.92422485 C368.68957406 1042.74123346 365.77860252 1034.54352528 363.08154297 1026.25927734 C360.92643026 1019.6702462 358.55332635 1013.16472307 356.15332031 1006.66137695 C353.64470312 999.84559829 351.23915828 992.99596806 348.84536743 986.13926697 C345.23902559 975.81153076 341.58977572 965.49906608 337.9375 955.1875 C337.57138611 954.15352081 337.20527222 953.11954163 336.82806396 952.05422974 C331.22400984 936.23079538 325.57647071 920.42347244 319.89501953 904.62768555 C316.3460341 894.7593475 312.81586139 884.88462991 309.3125 875 C309.08906921 874.36960815 308.86563843 873.73921631 308.63543701 873.08972168 C307.08938873 868.72680062 305.54473032 864.36338781 304 860 C297.89461303 842.76382849 291.77164751 825.53400173 285.625 808.3125 C285.30866608 807.42605804 284.99233215 806.53961609 284.66641235 805.62631226 C281.25161428 796.06015738 277.82494659 786.498524 274.36328125 776.94921875 C273.92631927 775.74305656 273.92631927 775.74305656 273.48052979 774.51252747 C272.11936436 770.75625376 270.75574222 767.00090935 269.38720703 763.24731445 C266.52612664 755.37696745 263.79928177 747.47284288 261.17120361 739.5216217 C258.94303863 732.79051261 256.5903219 726.10827128 254.1875 719.4375 C253.54965576 717.65931885 253.54965576 717.65931885 252.89892578 715.84521484 C251.60128186 712.22942173 250.30079931 708.61465895 249 705 C248.21211841 702.8060331 247.42435385 700.61202416 246.63671875 698.41796875 C242.2998436 686.34323316 242.2998436 686.34323316 237.90625 674.2890625 C234.35451668 664.61061039 230.93768415 654.9090195 227.71655273 645.11547852 C223.1315729 631.25183499 218.11670248 617.52698416 212.9375 603.875 C210.28503704 596.87536926 207.82277775 589.81479718 205.37817383 582.74023438 C202.08280771 573.20888015 198.71902484 563.70233526 195.35345459 554.19561768 C192.58883558 546.382678 189.83890211 538.56539013 187.1484375 530.7265625 C186.9224588 530.06844574 186.6964801 529.41032898 186.46365356 528.73226929 C185.40407122 525.64371176 184.34834389 522.5538983 183.29736328 519.46240234 C181.331521 513.71292353 179.25420408 508.04857582 176.96044922 502.42236328 C175.26475811 498.14563549 173.80015356 493.78999515 172.3125 489.4375 C169.51772019 481.3319825 166.66808382 473.2494359 163.75 465.1875 C160.11658496 455.14236376 156.54734189 445.07574993 153 435 C149.18835924 424.17483878 145.3445704 413.36270451 141.44018555 402.57055664 C139.26420026 396.54411079 137.11567277 390.50857529 134.98828125 384.46484375 C134.72582611 383.71945343 134.46337097 382.97406311 134.19296265 382.20608521 C132.90473236 378.54583313 131.61876318 374.88480587 130.3359375 371.22265625 C127.75449717 363.86832097 125.1028802 356.54672601 122.35038757 349.25466919 C119.03634464 340.46712174 115.83323361 331.63910793 112.625 322.8125 C112.28229065 321.87024567 111.9395813 320.92799133 111.58648682 319.95718384 C105.60772702 303.51155911 99.72108051 287.03415903 93.87280273 270.54174805 C89.50545156 258.22609215 85.1096164 245.92109518 80.6875 233.625 C76.17662945 221.07942955 71.69233446 208.52508802 67.24169922 195.95800781 C63.13751703 184.372156 59.00191775 172.79760591 54.86471558 161.22351074 C50.11609572 147.9377779 45.38310036 134.64656771 40.6602478 121.35165405 C30.94082051 93.96069706 30.94082051 93.96069706 21.03515625 66.63671875 C16.75286054 54.9509885 12.62072976 43.21891661 8.59472656 31.44262695 C6.7728362 26.11641535 4.94444925 20.79708486 2.99609375 15.515625 C2.70686035 14.72647705 2.41762695 13.9373291 2.11962891 13.12426758 C1.60118001 11.71962547 1.07421067 10.3180827 0.53662109 8.9206543 C-0.8255366 5.21694852 -1.0005947 4.00237882 0 0 Z " fill="#A900FE" transform="translate(687,20)"/>
</svg>
